<svg width="26" height="22" viewBox="0 0 26 22" fill="none" xmlns="http://www.w3.org/2000/svg">
<g clip-path="url(#clip0_49_6618)">
<path d="M13.0098 0.578125C12.502 0.578125 12.082 1.01758 12.082 1.55469V4.88477L12.2383 6.4668L11.6328 5.65625L10.5195 4.48438C10.3438 4.28906 10.1191 4.15234 9.8457 4.15234C9.37695 4.15234 9.03516 4.49414 9.03516 4.95312C9.03516 5.2168 9.15234 5.43164 9.36719 5.63672L12.3457 8.42969C12.5898 8.64453 12.7656 8.73242 13.0098 8.73242C13.2441 8.73242 13.4199 8.64453 13.6641 8.42969L16.6426 5.63672C16.8574 5.43164 16.9746 5.2168 16.9746 4.95312C16.9746 4.49414 16.6328 4.15234 16.1641 4.15234C15.8906 4.15234 15.666 4.28906 15.4902 4.48438L14.4453 5.58789L13.7715 6.4668L13.9277 4.88477V1.55469C13.9277 1.01758 13.5078 0.578125 13.0098 0.578125ZM18.0488 11.2812C18.4102 11.6328 19.0156 11.6328 19.4062 11.2324L20.9297 9.70898C21.3301 9.31836 21.3301 8.72266 20.9688 8.36133C20.6172 8 20.0215 8 19.6211 8.40039L18.0977 9.92383C17.6973 10.3242 17.6875 10.9297 18.0488 11.2812ZM6.60352 11.2324C6.99414 11.6328 7.60938 11.6426 7.96094 11.2812C8.3125 10.9199 8.3125 10.3242 7.91211 9.92383L6.38867 8.40039C5.98828 8 5.40234 8.00977 5.04102 8.36133C4.67969 8.71289 4.67969 9.31836 5.08008 9.70898L6.60352 11.2324ZM18.3125 16.3105C18.3125 13.3906 15.9199 10.9883 13.0098 10.9883C10.0898 10.9883 7.69727 13.3906 7.69727 16.3105C7.69727 16.877 7.81445 17.4336 8.00977 17.9316H18C18.2051 17.4336 18.3125 16.877 18.3125 16.3105ZM2.7168 16.7793L4.875 16.7891C5.44141 16.7891 5.88086 16.3691 5.87109 15.8613C5.86133 15.3535 5.44141 14.9434 4.875 14.9434H2.7168C2.16016 14.9434 1.74023 15.3535 1.74023 15.8613C1.74023 16.3691 2.16992 16.7793 2.7168 16.7793ZM21.1348 16.7793H23.293C23.8496 16.7793 24.2695 16.3691 24.2695 15.8613C24.2695 15.3535 23.8496 14.9434 23.293 14.9434H21.1348C20.5781 14.9434 20.1289 15.3535 20.1387 15.8613C20.1484 16.3691 20.5781 16.7793 21.1348 16.7793ZM1.55469 21.3203H24.4551C25.041 21.3203 25.5195 20.8418 25.5195 20.2852C25.5195 19.7188 25.0508 19.25 24.4551 19.25H1.55469C0.96875 19.25 0.490234 19.7285 0.490234 20.2852C0.490234 20.832 0.96875 21.3203 1.55469 21.3203Z" fill="currentColor"/>
</g>
<defs>
<clipPath id="clip0_49_6618">
<rect width="26" height="22" fill="white"/>
</clipPath>
</defs>
</svg>
