<svg width="18" height="18" viewBox="0 0 18 18" fill="none" xmlns="http://www.w3.org/2000/svg">
<path d="M4.71159 9.4798e-05H4.99286C5.42637 0.152814 5.59151 0.468208 5.55586 0.913C5.54382 1.06269 5.55397 1.21417 5.55397 1.37343H12.4469C12.4469 1.21398 12.4572 1.0625 12.445 0.912715C12.4087 0.467449 12.5758 0.153478 13.0081 0H13.2894C13.7132 0.147601 13.89 0.448774 13.8549 0.890912C13.8422 1.05093 13.8528 1.21275 13.8528 1.38282C14.0734 1.38282 14.266 1.38073 14.4586 1.3832C16.1147 1.40434 17.4584 2.4146 17.8791 3.95725C17.9279 4.13575 17.9601 4.31881 18 4.49978V14.8703C17.99 14.8969 17.9746 14.9229 17.9706 14.9504C17.712 16.7497 16.2775 17.9956 14.4592 17.9961C10.8218 17.9969 7.1843 17.9981 3.5469 17.9928C3.27369 17.9924 2.99451 17.9685 2.72851 17.9089C1.11438 17.5468 0.00354014 16.1564 0.00183378 14.5007C-0.00148415 11.2908 0.000317008 8.08106 0.00240256 4.8712C0.00249736 4.70198 0.0178546 4.53192 0.0376674 4.36365C0.218447 2.82934 1.6116 1.50293 3.15283 1.40661C3.4777 1.38633 3.80485 1.40367 4.14821 1.40367C4.14821 1.20621 4.15863 1.04856 4.14621 0.892808C4.11095 0.450386 4.28566 0.147316 4.71159 0.000189596V9.4798e-05ZM1.40674 6.94253C1.40674 7.01932 1.40674 7.07753 1.40674 7.13573C1.40674 9.57271 1.40617 12.0097 1.40702 14.4467C1.4074 15.6864 2.30296 16.5898 3.54282 16.5907C7.1807 16.5934 10.8187 16.5934 14.4565 16.5907C15.697 16.5898 16.5933 15.6871 16.5938 14.448C16.5946 12.011 16.594 9.57403 16.594 7.13706V6.94253H1.40674ZM13.8523 2.80536C13.8523 3.26247 13.8563 3.71267 13.8511 4.16277C13.8465 4.55704 13.5478 4.85499 13.1631 4.86077C12.7702 4.86665 12.4605 4.57012 12.4482 4.17045C12.4427 3.98901 12.4469 3.80728 12.4468 3.62565C12.4468 3.35234 12.4468 3.07914 12.4468 2.80223H5.55368C5.55368 3.26029 5.55776 3.70518 5.55245 4.14997C5.54752 4.56329 5.23999 4.86513 4.83995 4.86067C4.44862 4.85631 4.15266 4.5541 4.14887 4.14789C4.14527 3.75542 4.1484 3.36287 4.14754 2.97031C4.14745 2.91438 4.14128 2.85835 4.13816 2.80545C2.10009 2.57064 1.18833 3.94512 1.43319 5.52075H16.5753C16.7978 3.76708 15.7638 2.59007 13.8522 2.80517L13.8523 2.80536Z" fill="currentColor"/>
<path d="M4.85907 13.1473C5.08725 13.1473 5.31543 13.1434 5.54352 13.1481C5.94063 13.1564 6.2473 13.4681 6.24379 13.8538C6.24028 14.2333 5.94015 14.5435 5.5511 14.5503C5.08327 14.5584 4.61506 14.5585 4.14724 14.5503C3.76027 14.5433 3.4573 14.2295 3.45455 13.8525C3.4518 13.468 3.75999 13.1563 4.15719 13.1482C4.39106 13.1435 4.62511 13.1473 4.85917 13.1473L4.85907 13.1473Z" fill="#1ACD81"/>
<path d="M13.1309 14.5526C12.9144 14.5526 12.6979 14.5555 12.4816 14.5521C12.0701 14.5458 11.7584 14.2423 11.757 13.8508C11.7556 13.4586 12.067 13.1512 12.4774 13.1477C12.9278 13.1439 13.3783 13.1436 13.8287 13.1479C14.2372 13.1518 14.5512 13.4657 14.546 13.8554C14.5409 14.2402 14.2327 14.5437 13.8328 14.5517C13.5989 14.5563 13.3648 14.5525 13.1308 14.5526H13.1309Z" fill="#1ACD81"/>
<path d="M13.1617 9.00005C13.3899 9.00005 13.6181 8.99607 13.8462 9.001C14.2411 9.00953 14.551 9.32578 14.546 9.70886C14.5411 10.0879 14.239 10.3971 13.8505 10.4034C13.3825 10.4108 12.9144 10.4113 12.4465 10.4032C12.0582 10.3963 11.7582 10.0838 11.7568 9.7044C11.7555 9.31829 12.0625 9.00849 12.4597 9.00081C12.6935 8.99636 12.9277 8.99996 13.1617 9.00005H13.1617Z" fill="#1ACD81"/>
<path d="M4.84039 10.4053C4.61221 10.4053 4.38403 10.4099 4.15595 10.4043C3.75988 10.3945 3.45065 10.0797 3.45444 9.69739C3.45823 9.31289 3.76813 9.00499 4.16581 9.00101C4.62207 8.99646 5.07843 8.99636 5.53469 9.00101C5.93388 9.00508 6.24075 9.31157 6.24368 9.69844C6.24662 10.0835 5.94052 10.3948 5.54237 10.4043C5.3085 10.4099 5.07445 10.4053 4.84039 10.4053V10.4053Z" fill="#1ACD81"/>
<path d="M8.99873 10.4056C8.77056 10.4055 8.54238 10.4091 8.31429 10.4046C7.90676 10.3967 7.59326 10.0811 7.60084 9.69185C7.60833 9.30527 7.91624 9.00438 8.31733 9.00078C8.76771 8.9967 9.21819 8.99699 9.66867 9.00059C10.0801 9.00381 10.3893 9.30934 10.3884 9.7038C10.3875 10.0981 10.0791 10.399 9.66554 10.4051C9.44334 10.4084 9.22094 10.4057 8.99864 10.4056H8.99873Z" fill="#1ACD81"/>
<path d="M9.01038 13.1473C9.23856 13.1472 9.46674 13.1429 9.69473 13.1481C10.0846 13.1569 10.3836 13.4585 10.3886 13.841C10.3934 14.2207 10.0972 14.5408 9.70971 14.5492C9.23032 14.5595 8.75016 14.5607 8.27086 14.5482C7.89461 14.5384 7.59998 14.2165 7.60083 13.8472C7.60178 13.4682 7.90419 13.1583 8.29087 13.1485C8.53052 13.1425 8.77054 13.1474 9.01029 13.1473H9.01038Z" fill="#1ACD81"/>
</svg>
