<svg width="18" height="18" viewBox="0 0 18 18" fill="none" xmlns="http://www.w3.org/2000/svg">
<path d="M4.71159 3.2453e-06H4.99286C5.42637 0.152723 5.59151 0.468116 5.55586 0.912908C5.54382 1.06259 5.55397 1.21408 5.55397 1.37334H12.4469C12.4469 1.21389 12.4572 1.0624 12.445 0.912624C12.4087 0.467358 12.5758 0.153386 13.0081 -9.15527e-05H13.2894C13.7132 0.147509 13.89 0.448682 13.8549 0.89082C13.8422 1.05084 13.8528 1.21266 13.8528 1.38273C14.0734 1.38273 14.266 1.38064 14.4586 1.38311C16.1147 1.40425 17.4584 2.41451 17.8791 3.95716C17.9279 4.13566 17.9601 4.31872 18 4.49969V14.8702C17.99 14.8969 17.9746 14.9228 17.9706 14.9503C17.712 16.7496 16.2775 17.9955 14.4592 17.996C10.8218 17.9968 7.1843 17.998 3.5469 17.9927C3.27369 17.9923 2.99451 17.9684 2.72851 17.9088C1.11438 17.5467 0.00354014 16.1563 0.00183378 14.5006C-0.00148415 11.2907 0.000317008 8.08097 0.00240256 4.87111C0.00249736 4.70189 0.0178546 4.53182 0.0376674 4.36356C0.218447 2.82925 1.6116 1.50284 3.15283 1.40652C3.4777 1.38623 3.80485 1.40358 4.14821 1.40358C4.14821 1.20612 4.15863 1.04847 4.14621 0.892716C4.11095 0.450294 4.28566 0.147225 4.71159 9.80433e-05V3.2453e-06ZM1.40674 6.94244C1.40674 7.01923 1.40674 7.07744 1.40674 7.13564C1.40674 9.57261 1.40617 12.0096 1.40702 14.4466C1.4074 15.6863 2.30296 16.5897 3.54282 16.5906C7.1807 16.5933 10.8187 16.5933 14.4565 16.5906C15.697 16.5898 16.5933 15.687 16.5938 14.4479C16.5946 12.0109 16.594 9.57394 16.594 7.13697V6.94244H1.40674ZM13.8523 2.80527C13.8523 3.26238 13.8563 3.71258 13.8511 4.16268C13.8465 4.55694 13.5478 4.8549 13.1631 4.86068C12.7702 4.86656 12.4605 4.57003 12.4482 4.17036C12.4427 3.98892 12.4469 3.80719 12.4468 3.62555C12.4468 3.35225 12.4468 3.07904 12.4468 2.80214H5.55368C5.55368 3.2602 5.55776 3.70509 5.55245 4.14988C5.54752 4.5632 5.23999 4.86504 4.83995 4.86058C4.44862 4.85622 4.15266 4.55401 4.14887 4.1478C4.14527 3.75533 4.1484 3.36277 4.14754 2.97022C4.14745 2.91428 4.14128 2.85826 4.13816 2.80536C2.10009 2.57055 1.18833 3.94502 1.43319 5.52066H16.5753C16.7978 3.76699 15.7638 2.58998 13.8522 2.80508L13.8523 2.80527Z" fill="white"/>
<path d="M4.85907 13.1471C5.08725 13.1471 5.31543 13.1432 5.54352 13.1479C5.94063 13.1562 6.2473 13.468 6.24379 13.8536C6.24028 14.2331 5.94015 14.5433 5.5511 14.5501C5.08327 14.5582 4.61506 14.5583 4.14724 14.5501C3.76027 14.5432 3.4573 14.2293 3.45455 13.8524C3.4518 13.4678 3.75999 13.1561 4.15719 13.148C4.39106 13.1433 4.62511 13.1472 4.85917 13.1472L4.85907 13.1471Z" fill="white"/>
<path d="M13.1309 14.5524C12.9144 14.5524 12.6979 14.5553 12.4816 14.552C12.0701 14.5456 11.7584 14.2422 11.757 13.8507C11.7556 13.4585 12.067 13.151 12.4774 13.1475C12.9278 13.1437 13.3783 13.1435 13.8287 13.1477C14.2372 13.1516 14.5512 13.4655 14.546 13.8552C14.5409 14.2401 14.2327 14.5435 13.8328 14.5515C13.5989 14.5561 13.3648 14.5523 13.1308 14.5524H13.1309Z" fill="white"/>
<path d="M13.1617 8.99995C13.3899 8.99995 13.6181 8.99597 13.8462 9.0009C14.2411 9.00943 14.551 9.32567 14.546 9.70875C14.5411 10.0878 14.239 10.397 13.8505 10.4032C13.3825 10.4107 12.9144 10.4112 12.4465 10.4031C12.0582 10.3962 11.7582 10.0837 11.7568 9.7043C11.7555 9.31818 12.0625 9.00838 12.4597 9.00071C12.6935 8.99625 12.9277 8.99985 13.1617 8.99995H13.1617Z" fill="white"/>
<path d="M4.84039 10.4051C4.61221 10.4051 4.38403 10.4097 4.15595 10.4041C3.75988 10.3943 3.45065 10.0795 3.45444 9.6972C3.45823 9.31269 3.76813 9.00479 4.16581 9.00081C4.62207 8.99626 5.07843 8.99616 5.53469 9.00081C5.93388 9.00488 6.24075 9.31137 6.24368 9.69824C6.24662 10.0833 5.94052 10.3946 5.54237 10.4041C5.3085 10.4097 5.07445 10.4051 4.84039 10.4051V10.4051Z" fill="white"/>
<path d="M8.99873 10.4055C8.77056 10.4054 8.54238 10.409 8.31429 10.4046C7.90676 10.3966 7.59326 10.081 7.60084 9.69176C7.60833 9.30518 7.91624 9.00429 8.31733 9.00069C8.76771 8.99661 9.21819 8.99689 9.66867 9.0005C10.0801 9.00372 10.3893 9.30925 10.3884 9.70371C10.3875 10.098 10.0791 10.3989 9.66554 10.405C9.44334 10.4083 9.22094 10.4056 8.99864 10.4055H8.99873Z" fill="white"/>
<path d="M9.01038 13.1472C9.23856 13.1472 9.46674 13.1429 9.69473 13.148C10.0846 13.1568 10.3836 13.4585 10.3886 13.841C10.3934 14.2206 10.0972 14.5408 9.70971 14.5491C9.23032 14.5595 8.75016 14.5607 8.27086 14.5482C7.89461 14.5383 7.59998 14.2165 7.60083 13.8471C7.60178 13.4681 7.90419 13.1582 8.29087 13.1485C8.53052 13.1424 8.77054 13.1473 9.01029 13.1472H9.01038Z" fill="white"/>
</svg>
