<svg width="23" height="24" viewBox="0 0 23 24" fill="none" xmlns="http://www.w3.org/2000/svg">
<path d="M12.916 1.91992C12.916 1.34375 12.418 0.845703 11.8418 0.845703C11.2559 0.845703 10.7578 1.34375 10.7578 1.91992V3.86328C10.7578 4.44922 11.2559 4.94727 11.8418 4.94727C12.418 4.94727 12.916 4.44922 12.916 3.86328V1.91992ZM16.7832 5.50391C16.373 5.91406 16.373 6.60742 16.793 7.01758C17.1934 7.42773 17.8965 7.4375 18.3164 7.00781L19.6934 5.63086C20.0938 5.2207 20.0938 4.51758 19.6836 4.10742C19.2734 3.69727 18.5703 3.70703 18.1602 4.11719L16.7832 5.50391ZM5.36719 7.00781C5.76758 7.42773 6.4707 7.42773 6.88086 7.01758C7.29102 6.61719 7.30078 5.9043 6.90039 5.50391L5.52344 4.11719C5.12305 3.70703 4.41016 3.69727 4.00977 4.10742C3.58984 4.51758 3.58984 5.2207 3.99023 5.62109L5.36719 7.00781ZM11.832 6.69531C8.9707 6.69531 6.58789 9.06836 6.58789 11.9492C6.58789 14.8203 8.9707 17.1934 11.832 17.1934C14.7031 17.1934 17.0762 14.8203 17.0762 11.9492C17.0762 9.06836 14.7031 6.69531 11.832 6.69531ZM21.8516 13.0234C22.4375 13.0234 22.9355 12.5352 22.9355 11.9492C22.9355 11.3633 22.4375 10.875 21.8516 10.875H19.918C19.332 10.875 18.8438 11.3633 18.8438 11.9492C18.8438 12.5352 19.332 13.0234 19.918 13.0234H21.8516ZM1.82227 10.875C1.23633 10.875 0.748047 11.3633 0.748047 11.9492C0.748047 12.5352 1.23633 13.0234 1.82227 13.0234H3.75586C4.3418 13.0234 4.83984 12.5352 4.83984 11.9492C4.83984 11.3633 4.3418 10.875 3.75586 10.875H1.82227ZM18.2969 16.8809C17.8965 16.4805 17.1934 16.4805 16.7832 16.8906C16.373 17.3008 16.373 17.9941 16.793 18.4141L18.1797 19.791C18.5801 20.2012 19.2832 20.1914 19.6934 19.7812C20.1035 19.3711 20.1035 18.668 19.6836 18.2578L18.2969 16.8809ZM3.99023 18.2578C3.57031 18.6582 3.57031 19.3613 3.9707 19.7715C4.38086 20.1816 5.09375 20.1914 5.50391 19.791L6.88086 18.4141C7.29102 18.0039 7.30078 17.3008 6.90039 16.9004C6.48047 16.4805 5.77734 16.4805 5.36719 16.8906L3.99023 18.2578ZM12.916 20.0254C12.916 19.4492 12.418 18.9512 11.8418 18.9512C11.2559 18.9512 10.7578 19.4492 10.7578 20.0254V21.9688C10.7578 22.5547 11.2559 23.0527 11.8418 23.0527C12.418 23.0527 12.916 22.5547 12.916 21.9688V20.0254Z" fill="#FFBD00"/>
</svg>
