<svg width="17" height="16" viewBox="0 0 17 16" fill="none" xmlns="http://www.w3.org/2000/svg">
<g clip-path="url(#clip0_9_38)">
<path opacity="0.4" d="M8.03351 1.33337H6.70017C3.36684 1.33337 2.03351 2.66671 2.03351 6.00004V10C2.03351 13.3334 3.36684 14.6667 6.70017 14.6667H10.7002C14.0335 14.6667 15.3668 13.3334 15.3668 10V8.66671" stroke="#499F68" stroke-width="1.5" stroke-linecap="round" stroke-linejoin="round"/>
<path d="M11.3933 2.01338L6.13993 7.26671C5.93993 7.46671 5.73993 7.86005 5.69993 8.14671L5.41326 10.1534C5.3066 10.88 5.81993 11.3867 6.5466 11.2867L8.55326 11C8.83326 10.96 9.2266 10.76 9.43326 10.56L14.6866 5.30671C15.5933 4.40005 16.0199 3.34671 14.6866 2.01338C13.3533 0.680047 12.2999 1.10671 11.3933 2.01338Z" stroke="#499F68" stroke-width="1.5" stroke-miterlimit="10" stroke-linecap="round" stroke-linejoin="round"/>
<path d="M10.64 2.76672C11.0866 4.36006 12.3333 5.60672 13.9333 6.06006" stroke="currentColor" stroke-width="1.5" stroke-miterlimit="10" stroke-linecap="round" stroke-linejoin="round"/>
</g>
<defs>
<clipPath id="clip0_9_38">
<rect width="16" height="16" fill="white" transform="translate(0.700012)"/>
</clipPath>
</defs>
</svg>
