<svg width="26" height="17" viewBox="0 0 26 17" fill="none" xmlns="http://www.w3.org/2000/svg">
<path d="M13.0098 4.26172C13.5176 4.25195 13.9277 3.82227 13.9277 3.26562V1.10742C13.9277 0.550781 13.5176 0.130859 13.0098 0.130859C12.4922 0.130859 12.082 0.550781 12.082 1.10742V3.26562C12.082 3.82227 12.4922 4.27148 13.0098 4.26172ZM18.0488 6.35156C18.4102 6.70312 19.0156 6.69336 19.4062 6.30273L20.9297 4.7793C21.3301 4.37891 21.3301 3.79297 20.9688 3.43164C20.6172 3.07031 20.0215 3.07031 19.6211 3.4707L18.0977 4.99414C17.6973 5.39453 17.6875 6 18.0488 6.35156ZM6.60352 6.30273C6.99414 6.69336 7.60938 6.71289 7.96094 6.35156C8.3125 5.99023 8.3125 5.39453 7.91211 4.99414L6.38867 3.4707C5.98828 3.07031 5.40234 3.08008 5.04102 3.43164C4.67969 3.7832 4.67969 4.37891 5.08008 4.7793L6.60352 6.30273ZM18.3125 11.3809C18.3125 8.46094 15.9199 6.05859 13.0098 6.05859C10.0898 6.05859 7.69727 8.46094 7.69727 11.3809C7.69727 11.9473 7.81445 12.5039 8.00977 13.002H18C18.2051 12.5039 18.3125 11.9473 18.3125 11.3809ZM2.7168 11.8496L4.875 11.8594C5.44141 11.8594 5.88086 11.4395 5.87109 10.9316C5.86133 10.4238 5.44141 10.0039 4.875 10.0039H2.7168C2.16016 10.0039 1.74023 10.4238 1.74023 10.9316C1.74023 11.4395 2.16992 11.8496 2.7168 11.8496ZM21.1348 11.8496H23.293C23.8496 11.8496 24.2695 11.4395 24.2695 10.9316C24.2695 10.4238 23.8496 10.0039 23.293 10.0039H21.1348C20.5781 10.0039 20.1289 10.4238 20.1387 10.9316C20.1484 11.4395 20.5781 11.8496 21.1348 11.8496ZM1.55469 16.3809H24.4551C25.041 16.3809 25.5195 15.9023 25.5195 15.3555C25.5195 14.7891 25.0508 14.3203 24.4551 14.3203H1.55469C0.96875 14.3203 0.490234 14.7988 0.490234 15.3555C0.490234 15.9023 0.96875 16.3809 1.55469 16.3809Z" fill="currentColor"/>
</svg>
