<svg width="20" height="20" viewBox="0 0 20 20" fill="none" xmlns="http://www.w3.org/2000/svg">
<path d="M15.6699 13.1035C10.5918 13.1035 7.35938 9.96875 7.35938 4.91016C7.35938 3.77734 7.61328 2.3125 7.97461 1.53125C8.10156 1.26758 8.14062 1.0625 8.14062 0.90625C8.14062 0.574219 7.90625 0.261719 7.48633 0.261719C7.32031 0.261719 7.07617 0.300781 6.8125 0.398438C3.16992 1.85352 0.748047 5.67188 0.748047 9.73438C0.748047 15.457 5.06445 19.5781 10.7676 19.5781C14.8887 19.5781 18.502 17.1074 19.8203 13.8066C19.9277 13.5234 19.9668 13.2598 19.9668 13.1035C19.9668 12.7031 19.6738 12.4492 19.3418 12.4492C19.1562 12.4492 18.9707 12.498 18.707 12.6055C18.0039 12.8691 16.832 13.1035 15.6699 13.1035Z" fill="#FFBD00"/>
</svg>
