<svg width="26" height="18" viewBox="0 0 26 18" fill="none" xmlns="http://www.w3.org/2000/svg">
<g clip-path="url(#clip0_49_6624)">
<path d="M13.0098 4.76172C13.5176 4.75195 13.9277 4.32227 13.9277 3.76562V1.60742C13.9277 1.05078 13.5176 0.630859 13.0098 0.630859C12.4922 0.630859 12.082 1.05078 12.082 1.60742V3.76562C12.082 4.32227 12.4922 4.77148 13.0098 4.76172ZM18.0488 6.85156C18.4102 7.20312 19.0156 7.19336 19.4062 6.80273L20.9297 5.2793C21.3301 4.87891 21.3301 4.29297 20.9688 3.93164C20.6172 3.57031 20.0215 3.57031 19.6211 3.9707L18.0977 5.49414C17.6973 5.89453 17.6875 6.5 18.0488 6.85156ZM6.60352 6.80273C6.99414 7.19336 7.60938 7.21289 7.96094 6.85156C8.3125 6.49023 8.3125 5.89453 7.91211 5.49414L6.38867 3.9707C5.98828 3.57031 5.40234 3.58008 5.04102 3.93164C4.67969 4.2832 4.67969 4.87891 5.08008 5.2793L6.60352 6.80273ZM18.3125 11.8809C18.3125 8.96094 15.9199 6.55859 13.0098 6.55859C10.0898 6.55859 7.69727 8.96094 7.69727 11.8809C7.69727 12.4473 7.81445 13.0039 8.00977 13.502H18C18.2051 13.0039 18.3125 12.4473 18.3125 11.8809ZM2.7168 12.3496L4.875 12.3594C5.44141 12.3594 5.88086 11.9395 5.87109 11.4316C5.86133 10.9238 5.44141 10.5039 4.875 10.5039H2.7168C2.16016 10.5039 1.74023 10.9238 1.74023 11.4316C1.74023 11.9395 2.16992 12.3496 2.7168 12.3496ZM21.1348 12.3496H23.293C23.8496 12.3496 24.2695 11.9395 24.2695 11.4316C24.2695 10.9238 23.8496 10.5039 23.293 10.5039H21.1348C20.5781 10.5039 20.1289 10.9238 20.1387 11.4316C20.1484 11.9395 20.5781 12.3496 21.1348 12.3496ZM1.55469 16.8809H24.4551C25.041 16.8809 25.5195 16.4023 25.5195 15.8555C25.5195 15.2891 25.0508 14.8203 24.4551 14.8203H1.55469C0.96875 14.8203 0.490234 15.2988 0.490234 15.8555C0.490234 16.4023 0.96875 16.8809 1.55469 16.8809Z" fill="currentColor"/>
</g>
<defs>
<clipPath id="clip0_49_6624">
<rect width="26" height="17" fill="white" transform="translate(0 0.5)"/>
</clipPath>
</defs>
</svg>
