<svg width="62" height="62" viewBox="0 0 62 62" fill="none" xmlns="http://www.w3.org/2000/svg">
<path d="M23.467 53.2722C17.3844 51.6662 12.7309 46.7591 11.4468 40.5973L11.2014 39.4198C10.0442 33.8663 10.0442 28.1337 11.2014 22.5802L11.4468 21.4028C12.7309 15.2409 17.3844 10.3338 23.467 8.72779C28.4046 7.42407 33.5957 7.42407 38.5333 8.72779C44.6159 10.3338 49.2695 15.2408 50.5535 21.4028L50.7989 22.5802C51.9561 28.1337 51.9561 33.8663 50.7989 39.4198L50.5535 40.5972C49.2695 46.7591 44.6159 51.6662 38.5333 53.2722C33.5957 54.5759 28.4046 54.5759 23.467 53.2722Z" stroke="currentColor" stroke-width="4.5"/>
<path d="M31 18.0833L31 23.25" stroke="#1ACD81" stroke-width="4.5" stroke-linecap="round"/>
</svg>
