<svg width="18" height="18" viewBox="0 0 18 18" fill="none" xmlns="http://www.w3.org/2000/svg">
<circle cx="9" cy="9" r="8.5" stroke="white"/>
<path d="M4.89023 10.95C4.94357 11.2433 5.06357 11.47 5.25023 11.63C5.44357 11.7833 5.70023 11.86 6.02023 11.86C6.43357 11.86 6.73357 11.69 6.92023 11.35C7.1069 11.0033 7.20023 10.4233 7.20023 9.61C7.0469 9.82333 6.83023 9.99 6.55023 10.11C6.2769 10.23 5.98023 10.29 5.66023 10.29C5.23357 10.29 4.8469 10.2033 4.50023 10.03C4.16023 9.85 3.89023 9.58667 3.69023 9.24C3.49023 8.88667 3.39023 8.46 3.39023 7.96C3.39023 7.22 3.61023 6.63333 4.05023 6.2C4.49023 5.76 5.09023 5.54 5.85023 5.54C6.7969 5.54 7.46357 5.84333 7.85023 6.45C8.24357 7.05667 8.44023 7.97 8.44023 9.19C8.44023 10.0567 8.36357 10.7667 8.21023 11.32C8.06357 11.8733 7.8069 12.2933 7.44023 12.58C7.08023 12.8667 6.5869 13.01 5.96023 13.01C5.4669 13.01 5.0469 12.9167 4.70023 12.73C4.35357 12.5367 4.0869 12.2867 3.90023 11.98C3.72023 11.6667 3.6169 11.3233 3.59023 10.95H4.89023ZM5.95023 9.15C6.2969 9.15 6.57023 9.04333 6.77023 8.83C6.97023 8.61667 7.07023 8.33 7.07023 7.97C7.07023 7.57667 6.96357 7.27333 6.75023 7.06C6.54357 6.84 6.26023 6.73 5.90023 6.73C5.54023 6.73 5.25357 6.84333 5.04023 7.07C4.83357 7.29 4.73023 7.58333 4.73023 7.95C4.73023 8.30333 4.83023 8.59333 5.03023 8.82C5.2369 9.04 5.54357 9.15 5.95023 9.15ZM11.15 10.95C11.2033 11.2433 11.3233 11.47 11.51 11.63C11.7033 11.7833 11.96 11.86 12.28 11.86C12.6933 11.86 12.9933 11.69 13.18 11.35C13.3667 11.0033 13.46 10.4233 13.46 9.61C13.3067 9.82333 13.09 9.99 12.81 10.11C12.5367 10.23 12.24 10.29 11.92 10.29C11.4933 10.29 11.1067 10.2033 10.76 10.03C10.42 9.85 10.15 9.58667 9.95 9.24C9.75 8.88667 9.65 8.46 9.65 7.96C9.65 7.22 9.87 6.63333 10.31 6.2C10.75 5.76 11.35 5.54 12.11 5.54C13.0567 5.54 13.7233 5.84333 14.11 6.45C14.5033 7.05667 14.7 7.97 14.7 9.19C14.7 10.0567 14.6233 10.7667 14.47 11.32C14.3233 11.8733 14.0667 12.2933 13.7 12.58C13.34 12.8667 12.8467 13.01 12.22 13.01C11.7267 13.01 11.3067 12.9167 10.96 12.73C10.6133 12.5367 10.3467 12.2867 10.16 11.98C9.98 11.6667 9.87667 11.3233 9.85 10.95H11.15ZM12.21 9.15C12.5567 9.15 12.83 9.04333 13.03 8.83C13.23 8.61667 13.33 8.33 13.33 7.97C13.33 7.57667 13.2233 7.27333 13.01 7.06C12.8033 6.84 12.52 6.73 12.16 6.73C11.8 6.73 11.5133 6.84333 11.3 7.07C11.0933 7.29 10.99 7.58333 10.99 7.95C10.99 8.30333 11.09 8.59333 11.29 8.82C11.4967 9.04 11.8033 9.15 12.21 9.15Z" fill="white"/>
</svg>
