<svg width="24" height="24" viewBox="0 0 24 24" fill="none" xmlns="http://www.w3.org/2000/svg">
<path d="M3.35288 8.95043C4.00437 6.17301 6.17301 4.00437 8.95043 3.35288C10.9563 2.88237 13.0437 2.88237 15.0496 3.35288C17.827 4.00437 19.9956 6.17301 20.6471 8.95044C21.1176 10.9563 21.1176 13.0437 20.6471 15.0496C19.9956 17.827 17.827 19.9956 15.0496 20.6471C13.0437 21.1176 10.9563 21.1176 8.95044 20.6471C6.17301 19.9956 4.00437 17.827 3.35288 15.0496C2.88237 13.0437 2.88237 10.9563 3.35288 8.95043Z" stroke="currentColor" stroke-width="1.5"/>
<path d="M14.1442 10C14.1442 9.58579 13.8084 9.25 13.3942 9.25C12.9799 9.25 12.6442 9.58579 12.6442 10H14.1442ZM12.6442 13.5503C12.6442 13.9645 12.9799 14.3003 13.3942 14.3003C13.8084 14.3003 14.1442 13.9645 14.1442 13.5503H12.6442ZM10.75 10C10.75 9.58579 10.4142 9.25 10 9.25C9.58579 9.25 9.25 9.58579 9.25 10H10.75ZM9.25 13.5184C9.25 13.9326 9.58579 14.2684 10 14.2684C10.4142 14.2684 10.75 13.9326 10.75 13.5184H9.25ZM12.6442 10V13.5503H14.1442V10H12.6442ZM9.25 10V13.5184H10.75V10H9.25Z" fill="#1ACD81"/>
</svg>
