<svg width="33" height="33" viewBox="0 0 33 33" fill="none" xmlns="http://www.w3.org/2000/svg">
<path d="M4.61021 12.3068C5.50601 8.48788 8.48789 5.50601 12.3068 4.61021C15.0649 3.96327 17.9352 3.96326 20.6932 4.61021C24.5121 5.50601 27.494 8.48789 28.3898 12.3068C29.0367 15.0649 29.0367 17.9351 28.3898 20.6932C27.494 24.5121 24.5121 27.494 20.6932 28.3898C17.9351 29.0367 15.0649 29.0367 12.3068 28.3898C8.48789 27.494 5.50601 24.5121 4.61021 20.6932C3.96326 17.9352 3.96326 15.0649 4.61021 12.3068Z" stroke="currentColor" stroke-width="1.5"/>
<path d="M19.4724 14.9472C20.5509 15.6373 20.5509 17.3627 19.4724 18.0528L15.8327 20.3821C14.7543 21.0723 13.4062 20.2096 13.4062 18.8293L13.4063 14.1707C13.4063 12.7904 14.7543 11.9277 15.8327 12.6179L19.4724 14.9472Z" stroke="#1ACD81" stroke-width="1.5"/>
</svg>
