<svg width="26" height="21" viewBox="0 0 26 21" fill="none" xmlns="http://www.w3.org/2000/svg">
<path d="M12.5196 8.15429C13.0176 8.15429 13.4375 7.71484 13.4375 7.17773V3.84765L13.2813 2.26562L13.9551 3.14454L15 4.24804C15.1758 4.44335 15.4004 4.58007 15.6739 4.58007C16.1426 4.58007 16.4844 4.23828 16.4844 3.77929C16.4844 3.51562 16.3672 3.30079 16.1524 3.09571L13.1739 0.302734C12.9297 0.087891 12.7539 0 12.5196 0C12.2754 0 12.0996 0.087891 11.8555 0.302734L8.87696 3.09571C8.66211 3.30079 8.54493 3.51562 8.54493 3.77929C8.54493 4.23828 8.88672 4.58007 9.35547 4.58007C9.62887 4.58007 9.85357 4.44335 10.0293 4.24804L11.1426 3.07617L11.7481 2.26562L11.5918 3.84765V7.17773C11.5918 7.71484 12.0118 8.15429 12.5196 8.15429ZM17.5586 10.7031C17.92 11.0547 18.5254 11.0547 18.916 10.6543L20.4395 9.13085C20.8399 8.74023 20.8399 8.14454 20.4786 7.78321C20.127 7.42188 19.5313 7.42187 19.1309 7.82226L17.6075 9.34571C17.2071 9.74608 17.1973 10.3516 17.5586 10.7031ZM6.11329 10.6543C6.50391 11.0547 7.11915 11.0645 7.47071 10.7031C7.82227 10.3418 7.82227 9.74608 7.42188 9.34571L5.89844 7.82226C5.49805 7.42187 4.91211 7.43165 4.55079 7.78321C4.18946 8.13477 4.18946 8.74023 4.58985 9.13085L6.11329 10.6543ZM17.8223 15.7324C17.8223 12.8125 15.4297 10.4102 12.5196 10.4102C9.59957 10.4102 7.20704 12.8125 7.20704 15.7324C7.20704 16.2989 7.32422 16.8555 7.51954 17.3535H17.5098C17.7149 16.8555 17.8223 16.2989 17.8223 15.7324ZM2.22657 16.2012L4.38477 16.211C4.95118 16.211 5.39063 15.791 5.38086 15.2832C5.3711 14.7754 4.95118 14.3653 4.38477 14.3653H2.22657C1.66993 14.3653 1.25 14.7754 1.25 15.2832C1.25 15.791 1.67969 16.2012 2.22657 16.2012ZM20.6446 16.2012H22.8028C23.3594 16.2012 23.7793 15.791 23.7793 15.2832C23.7793 14.7754 23.3594 14.3653 22.8028 14.3653H20.6446C20.0879 14.3653 19.6387 14.7754 19.6485 15.2832C19.6582 15.791 20.0879 16.2012 20.6446 16.2012ZM1.06446 20.7422H23.9649C24.5508 20.7422 25.0293 20.2637 25.0293 19.7071C25.0293 19.1407 24.5606 18.6719 23.9649 18.6719H1.06446C0.478516 18.6719 0 19.1504 0 19.7071C0 20.2539 0.478516 20.7422 1.06446 20.7422Z" fill="#FFBD00"/>
</svg>
