<svg width="19" height="18" viewBox="0 0 19 18" fill="none" xmlns="http://www.w3.org/2000/svg">
<path d="M18.0216 11.941C17.9416 12.2264 17.795 12.4643 17.511 12.6262C17.5879 12.6987 17.6616 12.7546 17.7188 12.8243C18.0469 13.2226 18.0278 13.7311 17.6635 14.1131C17.4048 14.3843 17.1343 14.6446 16.8689 14.9096C16.5703 15.2078 16.2643 15.4988 15.9751 15.8056C15.6791 16.1196 15.3379 16.273 14.8879 16.1633C14.9417 16.6892 14.7742 17.092 14.2668 17.2825C13.8442 17.4411 13.4865 17.3051 13.1797 16.9715C12.8908 17.279 12.5446 17.4299 12.1259 17.2987C11.7159 17.1703 11.4999 16.8683 11.4362 16.4331C11.0009 16.5963 10.6559 16.4317 10.2941 16.2099C9.94845 15.9979 9.55655 15.8587 9.1798 15.6997C8.82673 15.5508 8.48782 15.386 8.21323 15.1086C7.92153 14.814 7.7812 14.4567 7.77297 14.0512C7.77099 13.9525 7.82364 13.8302 7.89208 13.7566C8.15943 13.4694 8.44109 13.1952 8.72193 12.921C8.88826 12.7584 9.06809 12.7486 9.20563 12.8821C9.34399 13.0162 9.33247 13.2108 9.16861 13.3781C8.94716 13.6042 8.71749 13.8223 8.50081 14.0526C8.45952 14.0965 8.43599 14.1861 8.448 14.2461C8.51431 14.5786 8.74464 14.7863 9.03222 14.9262C9.32639 15.0694 9.63799 15.1769 9.93397 15.3167C10.2239 15.4536 10.5086 15.6035 10.7869 15.763C11.0085 15.89 11.2008 15.8935 11.3456 15.7408C11.48 15.5992 11.4569 15.4104 11.3393 15.1942C11.1361 14.8208 10.9576 14.4339 10.772 14.0512C10.6549 13.8096 10.5577 13.5574 10.4262 13.3241C10.2683 13.0438 10.0184 12.8783 9.69146 12.8413C9.65658 12.8374 9.62203 12.8297 9.58748 12.8236C9.36505 12.7842 9.25186 12.6463 9.28312 12.4528C9.31323 12.2655 9.47117 12.1711 9.69327 12.1941C10.3851 12.2657 10.8416 12.653 11.1284 13.2614C11.2528 13.5254 11.3466 13.804 11.4724 14.0674C11.6078 14.3508 11.7715 14.6208 11.9094 14.9032C11.9949 15.0786 12.0556 15.2661 12.134 15.4643C12.5255 15.3641 12.8812 15.4741 13.1754 15.8076C13.4519 15.4901 13.7961 15.3779 14.1974 15.4574C14.2092 15.4428 14.2234 15.4331 14.2224 15.4254C14.1696 15.0096 14.3428 14.6965 14.6396 14.4167C15.0659 14.0149 15.4715 13.5911 15.888 13.1789C15.9288 13.1385 15.9851 13.1136 16.0183 13.0555C15.67 13.1131 15.3542 13.1013 15.0751 12.8867C14.7994 12.6745 14.679 12.388 14.6883 12.0709C14.4819 11.9857 14.2691 11.9374 14.1067 11.8199C13.9486 11.7054 13.8422 11.52 13.69 11.3383C13.2762 11.4576 12.887 11.3386 12.5843 10.9519C12.1219 11.2195 11.6972 11.1734 11.3015 10.8059C10.8331 11.2149 10.3538 11.2392 9.86997 10.831C9.27736 11.2289 9.04308 11.2256 8.43023 10.8113C7.99195 11.2099 7.48308 11.235 7.00794 10.8358C6.38078 11.234 6.09089 11.225 5.55044 10.7821C5.31402 10.9998 5.03762 11.1126 4.70677 11.0654C4.37937 11.0187 4.15661 10.8264 3.97744 10.5471C3.68657 10.6719 3.38845 10.6977 3.09906 10.5524C2.8095 10.4069 2.63478 10.1655 2.56749 9.83336C2.25128 9.86276 1.96007 9.81136 1.72086 9.58706C1.48164 9.36277 1.3877 9.08543 1.41369 8.74505C1.08087 8.69103 0.804468 8.54374 0.635668 8.24292C0.464236 7.93768 0.488092 7.62685 0.636491 7.30666C0.338706 7.1441 0.11693 6.9244 0.0593469 6.5781C0.00324479 6.23968 0.119397 5.95792 0.34397 5.71326C-0.211621 5.16729 -0.0434795 4.48471 0.487269 4.11756C0.277997 3.34385 0.460616 2.95585 1.17514 2.68837C1.11953 2.36834 1.17892 2.07015 1.40234 1.814C1.6302 1.55292 1.92881 1.48478 2.25259 1.49545C2.52257 0.745061 2.91446 0.525197 3.62553 0.717475C4.10248 0.00763906 4.57137 -0.0967921 5.22649 0.360997C5.67794 -0.0987625 6.26134 -0.133409 6.74684 0.338174C7.32596 -0.0972847 7.8934 0.080708 8.22787 0.527168C8.98813 0.294825 9.22636 0.36149 9.65889 0.935205C9.9292 0.818623 10.2058 0.75754 10.4993 0.884795C10.7814 1.00712 10.9591 1.21615 11.0675 1.51138C11.3554 1.42436 11.6355 1.42468 11.8993 1.57821C12.1565 1.7278 12.3072 1.95587 12.3702 2.23813C13.1872 2.21761 13.4913 2.43763 13.6326 3.14222C14.3779 3.23844 14.6314 3.48917 14.6962 4.20147C14.7938 4.22758 14.8966 4.24728 14.9938 4.28242C15.3994 4.42839 15.6435 4.7967 15.623 5.23675C15.6185 5.33117 15.6297 5.37796 15.735 5.41129C16.2663 5.57944 16.5237 6.03542 16.405 6.574C16.3989 6.60158 16.3949 6.62982 16.3906 6.65445C17.1027 7.05001 17.2109 7.28449 17.0364 8.04014C17.6445 8.51747 17.7318 8.8462 17.4233 9.49528C17.9847 10.0678 18.0365 10.4273 17.6293 11.0089C17.8361 11.1765 17.9603 11.4003 18.0216 11.6601V11.9412V11.941ZM1.6205 5.6796C1.98491 6.02639 2.04858 6.43607 1.86465 6.83967C2.03147 7.01898 2.20669 7.15149 2.30376 7.32718C2.40066 7.50255 2.41942 7.7211 2.47552 7.93209C2.92647 8.01107 3.14545 8.21206 3.3363 8.7503C3.79844 8.69086 4.15085 8.87411 4.39253 9.27722C4.84974 9.07263 5.24541 9.15522 5.58203 9.50349C6.15424 9.10415 6.40892 9.10317 7.00761 9.49511C7.49081 9.103 7.97105 9.10382 8.43484 9.52467C8.84302 9.15029 9.36324 9.06967 9.87425 9.50332C10.0676 9.30628 10.3109 9.21269 10.5827 9.20809C10.8652 9.20333 11.0958 9.34044 11.2949 9.52615C11.7021 9.14077 12.3217 9.03322 12.8345 9.62729C12.8536 9.61876 12.8751 9.61087 12.8949 9.59987C13.4587 9.28494 14.0798 9.56473 14.2695 10.0677C14.3084 10.1713 14.3688 10.1508 14.4493 10.1322C14.9754 10.011 15.4739 10.3217 15.5996 10.8489C15.6235 10.9493 15.6281 11.0544 15.6384 11.1328C15.8388 11.1969 16.0254 11.2563 16.2189 11.3182C16.2618 11.2578 16.3118 11.1874 16.3612 11.1179C15.9198 10.6762 15.8652 10.332 16.1488 9.76374C15.6891 9.44421 15.5672 9.01598 15.774 8.48988C15.2918 8.21452 15.1065 7.81387 15.2383 7.33736C15.03 7.1551 14.8043 7.02538 14.6816 6.83097C14.559 6.63688 14.5394 6.3781 14.4664 6.11768C13.9759 5.99306 13.7028 5.6415 13.7042 5.08601C13.0581 4.91755 12.8829 4.74382 12.7531 4.14039C12.205 4.13398 11.8465 3.86404 11.7009 3.33564C11.1054 3.4386 10.7107 3.20428 10.485 2.66899C9.94154 2.82301 9.54092 2.63418 9.25795 2.17442C8.72193 2.42286 8.2922 2.28624 7.94605 1.84651C7.46762 2.10464 7.04644 2.03617 6.66771 1.65916C6.21067 2.01154 5.75527 2.00267 5.30612 1.63634C4.97626 1.99676 4.58453 2.0846 4.18754 1.93715C4.01397 2.11432 3.88728 2.30299 3.71059 2.40759C3.52863 2.5153 3.29797 2.54124 3.06286 2.61037C2.99821 2.95273 2.78893 3.23335 2.40905 3.35666C2.29816 3.39262 2.27316 3.43876 2.28846 3.54139C2.33304 3.84105 2.23334 4.09556 2.02637 4.30919C1.95859 4.3793 1.87666 4.43578 1.80361 4.49621C2.00268 4.99357 1.92996 5.29537 1.62033 5.67927L1.6205 5.6796ZM17.3478 13.4172C17.2628 13.3216 17.2007 13.207 17.1048 13.1546C16.9615 13.0765 16.8253 13.144 16.712 13.2576C16.1378 13.8333 15.5611 14.4065 14.9866 14.9819C14.8293 15.1393 14.8157 15.3231 14.944 15.4628C15.0694 15.5992 15.2691 15.5983 15.4262 15.4429C16.017 14.859 16.6047 14.272 17.1891 13.6817C17.2511 13.6192 17.2833 13.5272 17.348 13.417L17.3478 13.4172ZM13.4111 4.11247C13.4088 4.28012 13.5512 4.42199 13.7254 4.42577C13.8973 4.42954 14.0399 4.29293 14.0447 4.1197C14.0493 3.95189 13.9085 3.80066 13.741 3.79376C13.5681 3.78654 13.4136 3.93579 13.4111 4.11247ZM8.02419 10.1565C8.02074 9.98919 7.87053 9.84437 7.70371 9.84732C7.52586 9.85044 7.38387 10.0018 7.39062 10.1808C7.39704 10.3471 7.54692 10.4823 7.71983 10.4777C7.8906 10.4731 8.02781 10.3284 8.02419 10.1565ZM4.86093 1.04916C4.86455 0.875928 4.72964 0.734388 4.55623 0.729462C4.37888 0.724372 4.22752 0.87051 4.22752 1.04735C4.22752 1.20663 4.38085 1.35818 4.54603 1.36196C4.71302 1.36574 4.85747 1.22223 4.86093 1.04916ZM15.4767 6.00948C15.3013 6.01194 15.1595 6.16448 15.1654 6.34461C15.171 6.51455 15.316 6.64608 15.4927 6.64148C15.6626 6.63721 15.8026 6.49025 15.7987 6.32014C15.7949 6.15627 15.6403 6.00701 15.4766 6.00931L15.4767 6.00948ZM2.37302 8.56919C2.1983 8.56722 2.04628 8.71992 2.04908 8.89463C2.05155 9.05489 2.20636 9.20136 2.37368 9.20152C2.54363 9.20185 2.68216 9.06031 2.68249 8.88577C2.68298 8.71516 2.54182 8.57083 2.37286 8.56903L2.37302 8.56919ZM1.65817 3.64056C1.65768 3.46799 1.51899 3.33023 1.34492 3.3294C1.16757 3.32858 1.01917 3.47965 1.02443 3.65534C1.02921 3.81478 1.18813 3.96387 1.35134 3.96223C1.51932 3.96042 1.65867 3.81429 1.65817 3.64056ZM3.83727 9.69396C3.83694 9.525 3.69298 9.37968 3.52468 9.37837C3.34979 9.37705 3.20024 9.52927 3.20337 9.70578C3.20616 9.8708 3.35604 10.0114 3.52813 10.0105C3.6994 10.0097 3.8376 9.86818 3.83727 9.69396ZM8.77886 1.65473C8.95144 1.65489 9.08849 1.5168 9.08915 1.34193C9.0898 1.1751 8.94305 1.02371 8.77902 1.02207C8.60808 1.02026 8.45212 1.17773 8.45409 1.34965C8.45607 1.51237 8.60726 1.65456 8.77869 1.65473H8.77886ZM10.1399 2.08165C10.3127 2.08444 10.4529 1.94815 10.4567 1.77394C10.4603 1.60399 10.3206 1.45523 10.1521 1.44931C9.98003 1.4434 9.82341 1.59595 9.82242 1.77033C9.82143 1.9337 9.96967 2.07886 10.1401 2.08165H10.1399ZM4.85007 9.80315C4.67551 9.80167 4.52859 9.95257 4.53089 10.1312C4.53303 10.301 4.67567 10.436 4.85171 10.435C5.02216 10.4342 5.16463 10.2916 5.16546 10.1209C5.16628 9.95947 5.01262 9.80463 4.85007 9.80315ZM6.30214 10.4778C6.47242 10.4778 6.61473 10.3358 6.61605 10.165C6.61737 9.99904 6.47012 9.84946 6.30313 9.84716C6.12643 9.8447 5.98017 9.99297 5.98198 10.1726C5.98363 10.3406 6.12791 10.478 6.30214 10.478V10.4778ZM12.015 9.84716C11.8381 9.85159 11.696 10.0053 11.7039 10.1834C11.7111 10.3486 11.8635 10.4843 12.0352 10.4782C12.2072 10.4721 12.3416 10.3283 12.3373 10.155C12.3332 9.9887 12.1808 9.84322 12.0152 9.84732L12.015 9.84716ZM16.9428 10.6478C17.1145 10.6445 17.2504 10.5023 17.2478 10.3286C17.2453 10.1613 17.0951 10.0138 16.9299 10.0163C16.7546 10.0189 16.608 10.1738 16.6142 10.3494C16.6201 10.5158 16.769 10.6511 16.9426 10.6478H16.9428ZM1.79177 7.77479C1.79127 7.61141 1.63925 7.46215 1.47309 7.46199C1.29326 7.46182 1.15325 7.60714 1.15687 7.79006C1.16033 7.95705 1.30807 8.09564 1.47983 8.09284C1.64731 8.09022 1.79209 7.9426 1.7916 7.77479H1.79177ZM15.9706 12.1235C15.9706 11.9621 15.8165 11.8079 15.6537 11.8066C15.4787 11.8051 15.3333 11.9558 15.3359 12.1356C15.3384 12.3047 15.4823 12.44 15.6579 12.4384C15.8286 12.4368 15.9708 12.2937 15.9706 12.1235ZM15.8434 7.60451C15.8387 7.76362 15.9874 7.91682 16.155 7.9252C16.3219 7.93357 16.4696 7.79367 16.4765 7.62044C16.4836 7.44573 16.3535 7.30288 16.1796 7.29434C16.002 7.28564 15.8487 7.42718 15.8434 7.60468V7.60451ZM2.42896 2.44535C2.42748 2.27573 2.28434 2.136 2.11209 2.13583C1.93375 2.13583 1.78946 2.28476 1.79506 2.46341C1.79999 2.62548 1.95629 2.77112 2.1218 2.768C2.28928 2.76488 2.43044 2.61661 2.42896 2.44519V2.44535ZM9.15216 9.84749C8.97694 9.85307 8.82953 10.0122 8.8399 10.1846C8.8496 10.3468 9.00672 10.4843 9.17519 10.478C9.34893 10.4716 9.47824 10.3304 9.47314 10.1531C9.46821 9.98229 9.32096 9.84207 9.15232 9.84749H9.15216ZM13.7019 10.4168C13.7007 10.2424 13.5632 10.1071 13.3875 10.1071C13.2089 10.1071 13.0617 10.2573 13.0673 10.4334C13.0722 10.5908 13.2341 10.7416 13.3955 10.7393C13.5623 10.7368 13.703 10.5887 13.7019 10.4166V10.4168ZM13.9358 16.0741C13.7639 16.0781 13.6245 16.2191 13.6235 16.3902C13.6226 16.5588 13.7846 16.7109 13.9579 16.7038C14.1286 16.6968 14.2625 16.5511 14.2581 16.3774C14.2537 16.207 14.1086 16.0703 13.9358 16.0741ZM5.99629 1.27181C6.16937 1.2751 6.31004 1.13963 6.31464 0.965582C6.31909 0.797933 6.17793 0.646541 6.01077 0.639809C5.83901 0.632913 5.68255 0.784305 5.68025 0.959506C5.67811 1.12321 5.82536 1.26869 5.99629 1.27181ZM7.40427 1.36196C7.56863 1.36754 7.7172 1.22321 7.72312 1.05211C7.72921 0.880033 7.59446 0.736194 7.42106 0.72979C7.24058 0.723058 7.09349 0.862792 7.09053 1.04391C7.0879 1.20301 7.23926 1.35638 7.40411 1.36196H7.40427ZM12.9809 3.1808C12.9865 3.01989 12.8368 2.86324 12.6718 2.857C12.502 2.8506 12.357 2.98573 12.3475 3.15946C12.3376 3.33811 12.4783 3.48687 12.6594 3.48966C12.8269 3.49229 12.975 3.34993 12.9809 3.1808ZM0.937402 5.2755C1.11459 5.2888 1.25838 5.16631 1.27188 4.99094C1.2857 4.81213 1.14815 4.65368 0.972774 4.64612C0.807758 4.6389 0.654588 4.77765 0.640604 4.94677C0.627113 5.10966 0.765147 5.26269 0.937402 5.2755ZM16.9507 8.93421C16.9558 8.77083 16.8085 8.61517 16.6435 8.60975C16.4694 8.604 16.3183 8.75244 16.3164 8.93109C16.3148 9.09808 16.4584 9.23995 16.6317 9.24224C16.8036 9.24454 16.9452 9.10777 16.9507 8.93421ZM10.57 9.84683C10.3958 9.84683 10.2444 10.0018 10.2485 10.1761C10.2523 10.3373 10.4075 10.481 10.5756 10.4792C10.7482 10.4774 10.8829 10.338 10.8826 10.1616C10.8823 9.99149 10.7385 9.84666 10.57 9.84683ZM14.9876 11.0568C14.9876 10.8915 14.8394 10.7458 14.6704 10.7448C14.4904 10.7439 14.3506 10.8882 14.3542 11.0713C14.3573 11.2355 14.5088 11.3788 14.6766 11.3765C14.8413 11.3744 14.9878 11.224 14.9878 11.0568H14.9876ZM14.9883 5.17468C14.9883 5.01213 14.8348 4.86123 14.6694 4.86106C14.4906 4.86106 14.3502 5.00753 14.354 5.19028C14.3576 5.35793 14.5049 5.49619 14.6765 5.49323C14.845 5.49028 14.9883 5.34397 14.9881 5.17485L14.9883 5.17468ZM0.993997 6.10077C0.821249 6.10488 0.68486 6.24461 0.684202 6.41817C0.683544 6.58664 0.847573 6.73967 1.01933 6.73081C1.1878 6.72227 1.32534 6.57137 1.31959 6.40191C1.31366 6.23262 1.16675 6.0965 0.994162 6.10077H0.993997ZM12.4107 16.0733C12.2333 16.0705 12.0833 16.2193 12.0856 16.3953C12.0877 16.5567 12.2412 16.7045 12.4077 16.7053C12.575 16.7061 12.719 16.561 12.721 16.3895C12.7229 16.2194 12.5821 16.0759 12.4107 16.0733ZM11.7411 2.40135C11.7386 2.2337 11.5917 2.09249 11.4206 2.09364C11.2404 2.09495 11.0993 2.24273 11.1059 2.42302C11.1118 2.58443 11.2692 2.72942 11.4336 2.72498C11.5999 2.72039 11.7434 2.56949 11.7409 2.40151L11.7411 2.40135ZM17.057 11.4693C16.8758 11.4722 16.7391 11.6177 16.7453 11.8008C16.7511 11.9673 16.9018 12.1049 17.0721 12.0993C17.2394 12.0937 17.383 11.9433 17.3799 11.777C17.3768 11.6123 17.2238 11.4665 17.0568 11.4693H17.057ZM2.90739 1.59627C2.90443 1.76097 3.04839 1.90875 3.21735 1.91433C3.38911 1.92008 3.54327 1.76589 3.54129 1.59036C3.53948 1.43224 3.39915 1.2902 3.23759 1.28331C3.05711 1.27543 2.91052 1.41434 2.90739 1.59627Z" fill="currentColor"/>
</svg>
