<svg width="24" height="24" viewBox="0 0 24 24" fill="none" xmlns="http://www.w3.org/2000/svg">
<path d="M8.86607 7.00638H8.12819C7.29866 7.00638 6.47502 7.15311 5.69169 7.44046C4.32455 7.94197 3.32964 9.1935 3.10172 10.6985L3.0942 10.7481C2.9686 11.5775 2.9686 12.4225 3.0942 13.2519L3.10172 13.3015C3.32964 14.8065 4.32455 16.058 5.69169 16.5595C6.47502 16.8469 7.29866 16.9936 8.12819 16.9936H8.86607C9.31092 16.9936 9.73726 17.1811 10.0499 17.5142L10.5914 18.091C12.1879 19.7918 14.938 18.9873 15.4719 16.6633C16.176 13.5986 16.176 10.4014 15.4719 7.33668C14.938 5.01271 12.1879 4.20823 10.5914 5.90899L10.0499 6.48581C9.73726 6.81891 9.31092 7.00638 8.86607 7.00638Z" stroke="currentColor" stroke-width="1.5"/>
<path d="M19 7C20.7934 7.99804 22 9.86346 22 12C22 14.1365 20.7934 16.002 19 17" stroke="#1ACD81" stroke-width="1.5" stroke-linecap="round" stroke-linejoin="round"/>
<path d="M18.5 10C19.0978 10.3992 19.5 11.1454 19.5 12C19.5 12.8546 19.0978 13.6008 18.5 14" stroke="#1ACD81" stroke-width="1.5" stroke-linecap="round" stroke-linejoin="round"/>
</svg>
