<svg width="24" height="24" viewBox="0 0 24 24" fill="none" xmlns="http://www.w3.org/2000/svg">
<path d="M6.86607 7.00638H6.12819C5.29866 7.00638 4.47502 7.15311 3.69169 7.44046C2.32455 7.94197 1.32964 9.1935 1.10172 10.6985L1.0942 10.7481C0.968598 11.5775 0.968599 12.4225 1.0942 13.2519L1.10172 13.3015C1.32964 14.8065 2.32455 16.058 3.69169 16.5595C4.47502 16.8469 5.29866 16.9936 6.12819 16.9936H6.86607C7.31092 16.9936 7.73726 17.1811 8.04993 17.5142L8.59139 18.091C10.1879 19.7918 12.938 18.9873 13.4719 16.6633C14.176 13.5986 14.176 10.4014 13.4719 7.33668C12.938 5.01271 10.1879 4.20823 8.59138 5.90899L8.04993 6.48581C7.73726 6.81891 7.31092 7.00638 6.86607 7.00638Z" stroke="currentColor" stroke-width="1.5"/>
<path d="M17 7C18.7934 7.99804 20 9.86346 20 12C20 14.1365 18.7934 16.002 17 17" stroke="#1ACD81" stroke-width="1.5" stroke-linecap="round" stroke-linejoin="round"/>
<path d="M16.5 10C17.0978 10.3992 17.5 11.1454 17.5 12C17.5 12.8546 17.0978 13.6008 16.5 14" stroke="#1ACD81" stroke-width="1.5" stroke-linecap="round" stroke-linejoin="round"/>
<path d="M18 4C20.989 5.59687 23 8.58154 23 12C23 15.4185 20.989 18.4031 18 20" stroke="#1ACD81" stroke-width="1.5" stroke-linecap="round" stroke-linejoin="round"/>
</svg>
