<svg width="24" height="24" viewBox="0 0 24 24" fill="none" xmlns="http://www.w3.org/2000/svg">
<path d="M20 10C20.5978 10.3992 21 11.1454 21 12C21 12.8546 20.5978 13.6008 20 14" stroke="#1ACD81" stroke-width="1.5" stroke-linecap="round" stroke-linejoin="round"/>
<path d="M9.31731 7.00638H8.52267C7.62933 7.00638 6.74233 7.15311 5.89875 7.44046C4.42644 7.94197 3.355 9.1935 3.10954 10.6985L3.10145 10.7481C2.96618 11.5775 2.96618 12.4225 3.10145 13.2519L3.10954 13.3015C3.355 14.8065 4.42644 16.058 5.89875 16.5595C6.74233 16.8469 7.62933 16.9936 8.52267 16.9936H9.31731C9.79638 16.9936 10.2555 17.1811 10.5922 17.5142L11.1753 18.091C12.8946 19.7918 15.8563 18.9873 16.4313 16.6633C17.1896 13.5986 17.1896 10.4014 16.4313 7.33668C15.8563 5.01271 12.8946 4.20823 11.1753 5.90899L10.5922 6.48581C10.2555 6.81891 9.79638 7.00638 9.31731 7.00638Z" stroke="currentColor" stroke-width="1.5"/>
</svg>
