<svg width="24" height="24" viewBox="0 0 24 24" fill="none" xmlns="http://www.w3.org/2000/svg">
<path d="M10.8661 7.00638H10.1282C9.29866 7.00638 8.47502 7.15311 7.69169 7.44046C6.32455 7.94197 5.32964 9.1935 5.10172 10.6985L5.0942 10.7481C4.9686 11.5775 4.9686 12.4225 5.0942 13.2519L5.10172 13.3015C5.32964 14.8065 6.32455 16.058 7.69169 16.5595C8.47502 16.8469 9.29866 16.9936 10.1282 16.9936H10.8661C11.3109 16.9936 11.7373 17.1811 12.0499 17.5142L12.5914 18.091C14.1879 19.7918 16.938 18.9873 17.4719 16.6633C18.176 13.5986 18.176 10.4014 17.4719 7.33668C16.938 5.01271 14.1879 4.20823 12.5914 5.90899L12.0499 6.48581C11.7373 6.81891 11.3109 7.00638 10.8661 7.00638Z" stroke="#1ACD81" stroke-width="1.5"/>
<path d="M10.8661 7.00635H10.1282C9.29866 7.00635 8.47503 7.15309 7.69169 7.44044C6.32455 7.94194 5.32964 9.19347 5.10172 10.6985L5.0942 10.7481C4.9686 11.5774 4.9686 12.4225 5.0942 13.2519L5.10172 13.3015C5.32964 14.8065 6.32455 16.058 7.69169 16.5595C8.47503 16.8469 9.29866 16.9936 10.1282 16.9936H10.8661C11.3109 16.9936 11.7373 17.1811 12.0499 17.5142L12.5914 18.091C14.1879 19.7917 16.938 18.9873 17.4719 16.6633C18.176 13.5986 18.176 10.4014 17.4719 7.33665" stroke="currentColor" stroke-width="1.5" stroke-linecap="round"/>
</svg>
