<svg width="18" height="17" viewBox="0 0 18 17" fill="none" xmlns="http://www.w3.org/2000/svg">
<path d="M18 9.00027C17.8526 9.72446 17.4178 10.2777 16.9798 10.83C16.7721 11.0916 16.5711 11.3589 16.361 11.6186C15.9603 12.1138 15.8543 12.6631 16.0519 13.2771C16.3795 14.2951 16.7036 15.3144 17.0293 16.3331C17.0495 16.3961 17.0759 16.4575 17.0889 16.5217C17.1303 16.7248 17.0343 16.9062 16.855 16.9728C16.6687 17.042 16.4687 16.9619 16.3877 16.765C16.2894 16.5266 16.1985 16.2838 16.1213 16.0376C15.8372 15.132 15.5362 14.2312 15.2872 13.3152C15.0788 12.5491 15.2333 11.8319 15.724 11.2031C16.0728 10.7561 16.4062 10.2958 16.7709 9.86296C17.3394 9.18782 17.3603 8.45372 17.0048 7.69112C16.8627 7.38638 16.6639 7.09849 16.4442 6.84627C16.0766 6.42459 15.6716 6.03735 15.2816 5.63623C15.2326 5.58594 15.18 5.53936 15.1316 5.49352C14.7184 5.7445 14.5434 6.26702 14.7143 6.74569C14.8295 7.06802 14.9643 7.38292 15.0812 7.70475C15.2129 8.06846 15.1242 8.25874 14.7559 8.34273C13.9891 8.51789 13.3265 8.8868 12.7967 9.4782C12.545 9.75915 12.345 10.0911 12.1361 10.41C12.0085 10.6047 11.8698 10.6939 11.6904 10.6449C11.4354 10.575 11.3349 10.3151 11.4698 10.0535C11.9977 9.02852 12.7806 8.28871 13.8191 7.83854C13.9532 7.78032 14.0912 7.73126 14.2451 7.6713C14.165 7.45526 14.0843 7.24417 14.0085 7.03135C13.778 6.38346 13.8806 5.78464 14.271 5.23437C14.4485 4.98438 14.6819 4.80649 14.9956 4.72077C14.9403 4.38506 14.8872 4.05381 14.8309 3.7233C14.74 3.18839 14.6497 2.65349 14.5542 2.11957C14.5162 1.90749 14.3785 1.77321 14.1799 1.7405C13.9862 1.70879 13.828 1.78163 13.7306 1.95159C13.6866 2.02815 13.6641 2.13766 13.6766 2.22536C13.7439 2.6966 13.8249 3.1656 13.9023 3.63535C13.9326 3.81968 13.9742 4.00252 13.996 4.18785C14.0251 4.43189 13.8895 4.61671 13.6751 4.64743C13.4739 4.67617 13.2922 4.53669 13.252 4.30528C13.0739 3.27783 12.9001 2.24989 12.7253 1.22195C12.6684 0.886238 12.4222 0.700916 12.1431 0.785897C11.9229 0.853039 11.7945 1.06809 11.8392 1.3265C11.9974 2.24097 12.1614 3.15445 12.3231 4.06843C12.4039 4.52529 12.4857 4.98215 12.5652 5.43926C12.6073 5.68058 12.4893 5.88002 12.2816 5.92412C12.0505 5.97318 11.8614 5.83543 11.8162 5.57528C11.6726 4.75001 11.5325 3.92398 11.3909 3.09821C11.345 2.83088 11.3017 2.56306 11.2512 2.29672C11.1967 2.00858 10.9851 1.85199 10.7202 1.8956C10.4753 1.93574 10.3171 2.16541 10.3647 2.4481C10.5442 3.51791 10.7318 4.58649 10.9166 5.65556C10.9875 6.06535 11.0596 6.47489 11.1303 6.88468C11.1731 7.13318 11.0474 7.33857 10.8315 7.37623C10.6005 7.41636 10.4226 7.27737 10.3765 7.01103C10.2553 6.31038 10.1375 5.60873 10.0178 4.90783C9.97332 4.64694 9.92716 4.3863 9.88221 4.12863C9.62691 4.09072 9.41705 4.24731 9.38484 4.49506C9.3757 4.56642 9.37739 4.63975 9.37739 4.7121C9.37715 6.50611 9.387 8.29986 9.37282 10.0936C9.36633 10.9152 9.54927 11.6694 9.97476 12.3636C10.5159 13.2466 10.9544 14.1769 11.1594 15.2078C11.244 15.633 11.3106 16.0621 11.3794 16.4905C11.4222 16.7573 11.2969 16.9533 11.0705 16.9939C10.851 17.0333 10.6635 16.8794 10.6361 16.6076C10.5623 15.8718 10.4363 15.1446 10.1567 14.4638C9.91827 13.8828 9.61898 13.3283 9.34157 12.7647C9.24132 12.561 9.12666 12.3651 9.01944 12.1669C8.83554 12.4879 8.64611 12.814 8.46101 13.1428C7.85547 14.2185 7.50329 15.3783 7.38502 16.6146C7.36699 16.8021 7.28141 16.9327 7.10016 16.983C6.93308 17.0293 6.78837 16.9743 6.70471 16.8272C6.65567 16.7409 6.63404 16.6195 6.64485 16.5187C6.77587 15.2722 7.0641 14.0731 7.67878 12.9758C7.85426 12.6624 8.02999 12.3487 8.19947 12.0318C8.47616 11.5143 8.61607 10.9573 8.61727 10.3671C8.62087 8.45248 8.62135 6.53782 8.62039 4.62315C8.62039 4.30132 8.43072 4.11922 8.12711 4.14895C8.03191 4.70194 7.93576 5.25915 7.83984 5.81635C7.76941 6.22614 7.70089 6.63643 7.62806 7.04597C7.58382 7.29447 7.39391 7.44163 7.18069 7.40051C6.96313 7.35839 6.84005 7.16415 6.88332 6.90797C7.12419 5.47544 7.36843 4.04365 7.61123 2.61137C7.62132 2.55191 7.63214 2.49245 7.63695 2.43224C7.65834 2.15822 7.50329 1.95308 7.2516 1.91914C7.00929 1.88668 6.80183 2.05144 6.75447 2.32224C6.69101 2.68446 6.63452 3.04767 6.57249 3.41014C6.45759 4.08131 6.34124 4.75223 6.22393 5.42316C6.21143 5.49427 6.19268 5.56438 6.1708 5.63301C6.09388 5.87383 5.94988 5.96575 5.73545 5.91446C5.53785 5.86714 5.41837 5.6677 5.45684 5.43803C5.51669 5.08126 5.58136 4.72548 5.64242 4.3692C5.81454 3.36529 5.98786 2.36163 6.15638 1.35698C6.20782 1.05001 6.05541 0.814389 5.79627 0.775986C5.5316 0.736593 5.32558 0.909032 5.27462 1.21427C5.10803 2.21298 4.94264 3.21218 4.7734 4.21064C4.75754 4.3038 4.73085 4.40116 4.68422 4.48119C4.5984 4.62786 4.42339 4.68212 4.26882 4.63083C4.09478 4.57311 3.98251 4.4252 4.00703 4.23095C4.0479 3.90838 4.11185 3.58877 4.16401 3.26768C4.22002 2.9228 4.28348 2.57866 4.32483 2.23181C4.35704 1.96125 4.20223 1.77296 3.95174 1.73703C3.71255 1.7026 3.4962 1.86909 3.44716 2.13345C3.38899 2.44735 3.33706 2.76275 3.28273 3.0774C3.1897 3.61751 3.09691 4.15762 3.00268 4.70665C3.60486 4.91501 3.9116 5.38005 4.06473 5.97863C4.22122 6.58985 3.96737 7.12525 3.74717 7.67453C4.35777 7.87397 4.89913 8.16558 5.37847 8.57438C5.85853 8.98367 6.24508 9.47175 6.53475 10.0404C6.65351 10.2735 6.60351 10.4952 6.41191 10.6045C6.21311 10.718 6.00084 10.6387 5.87271 10.3996C5.30443 9.34069 4.46859 8.63904 3.31447 8.36156C3.26326 8.34917 3.2123 8.3348 3.16278 8.31696C2.90051 8.22256 2.80844 8.05087 2.90147 7.78205C3.01518 7.45278 3.14547 7.12946 3.27264 6.80539C3.38827 6.51007 3.40173 6.21152 3.2599 5.92908C3.17624 5.76259 3.04547 5.62161 2.94498 5.48213C2.89186 5.49724 2.87767 5.49699 2.8707 5.50418C2.3666 6.0262 1.84423 6.53138 1.36513 7.07694C0.955501 7.54346 0.759822 8.12743 0.758139 8.75499C0.757659 8.97674 0.835545 9.23019 0.955982 9.41477C1.23916 9.84909 1.56898 10.2514 1.88125 10.6654C2.00697 10.8322 2.13342 10.9989 2.26491 11.161C2.78681 11.8039 2.9058 12.5325 2.72647 13.3365C2.49641 14.3687 2.12693 15.353 1.77644 16.344C1.73629 16.4573 1.69543 16.5702 1.65288 16.6827C1.556 16.9384 1.35936 17.0469 1.14493 16.9644C0.943001 16.8866 0.861027 16.6691 0.946126 16.4208C1.09228 15.9944 1.25647 15.574 1.38652 15.1427C1.60648 14.412 1.8113 13.6764 2.01154 12.9396C2.10866 12.5823 2.04472 12.2347 1.83413 11.9392C1.47403 11.4337 1.09084 10.9457 0.721119 10.4472C0.417745 10.0384 0.114851 9.62115 0.0343197 9.09863C-0.0904436 8.28896 0.133121 7.55734 0.572316 6.88938C0.97353 6.27916 1.50912 5.7948 2.01659 5.28566C2.13198 5.1697 2.19256 5.04731 2.21924 4.88355C2.37045 3.95545 2.56084 3.0333 2.68248 2.10124C2.79137 1.26531 3.61399 0.646905 4.52267 1.10971C4.59191 0.719993 4.7609 0.395928 5.09481 0.183352C5.30996 0.0443608 5.54434 -0.0131188 5.79723 0.00248987C6.37489 0.0384146 6.71865 0.378089 6.9302 1.12805C7.07347 1.12805 7.22011 1.11244 7.36266 1.13077C8.02422 1.21501 8.48361 1.85249 8.38024 2.53382C8.34058 2.79471 8.29634 3.05485 8.25932 3.28279C8.52376 3.40023 8.76727 3.50825 8.99877 3.61107C9.22642 3.50874 9.46417 3.40196 9.73557 3.27982C9.70985 3.12423 9.67956 2.92503 9.64326 2.72707C9.52258 2.06581 9.7274 1.54453 10.2214 1.2658C10.4832 1.11814 10.7632 1.08494 11.0705 1.14366C11.1289 0.742539 11.2955 0.415748 11.6263 0.195988C11.8505 0.0468383 12.0967 -0.0103935 12.3628 0.00595847C12.9203 0.0401489 13.2972 0.410298 13.4797 1.11814C13.7559 0.959822 14.0518 0.899865 14.3576 0.974935C14.8778 1.10303 15.1898 1.45261 15.2855 1.99074C15.4593 2.96987 15.6177 3.95173 15.7918 4.93087C15.8112 5.04013 15.8725 5.15608 15.9466 5.23784C16.3742 5.70957 16.8293 6.15627 17.2408 6.64237C17.6526 7.12872 17.9034 7.70549 17.9731 8.3561C17.9755 8.3784 17.9906 8.39921 17.9998 8.42077V9.00052L18 9.00027Z" fill="white"/>
</svg>
