<svg width="18" height="18" viewBox="0 0 18 18" fill="none" xmlns="http://www.w3.org/2000/svg">
<path d="M0 16.4521C0.116972 15.9934 0.235741 15.5352 0.350404 15.076C0.522913 14.3858 1.02248 14.0537 1.72291 14.1678C1.80948 14.1819 1.89554 14.1993 1.98186 14.2156C2.14039 14.2453 2.28879 14.2555 2.45847 14.221C2.66266 14.1795 2.8875 14.2343 3.10272 14.2539C3.50456 14.2905 3.90588 14.3317 4.33991 14.3741C4.29707 14.2999 4.26809 14.2465 4.23615 14.1948C3.87266 13.6072 3.50392 13.0229 3.14607 12.4318C2.20991 10.8854 2.64817 8.92105 4.13521 7.97873C4.34735 7.84423 4.55949 7.87567 4.67249 8.05831C4.77715 8.22759 4.72687 8.42897 4.5323 8.55731C4.11623 8.83185 3.78827 9.18403 3.58703 9.64132C3.23265 10.4462 3.26381 11.2431 3.71106 12.0002C4.18151 12.7966 4.67877 13.5772 5.17129 14.3602C5.2072 14.4173 5.29596 14.463 5.36586 14.473C5.61494 14.5083 5.86645 14.526 6.11707 14.55C6.35833 14.5731 6.50967 14.7221 6.49621 14.9239C6.4821 15.1366 6.3051 15.2746 6.06012 15.2509C5.05778 15.154 4.05569 15.0535 3.0536 14.9546C3.00255 14.9496 2.95125 14.9477 2.89058 14.9438V16.4851C3.19532 16.549 3.50712 16.6156 3.81943 16.6799C4.67313 16.8558 5.52503 17.041 6.38129 17.2027C7.1343 17.3448 8.003 16.9365 8.35981 16.2927C8.24361 16.1908 8.12497 16.0876 8.00736 15.9834C7.14597 15.2208 6.89894 14.0501 7.38543 13.0087C7.43122 12.9107 7.4266 12.8448 7.3667 12.7564C7.05811 12.3006 6.7558 11.8404 6.45311 11.3807C6.36474 11.2464 6.35461 11.1041 6.44618 10.9684C6.5293 10.8451 6.66012 10.7821 6.79697 10.831C6.89817 10.867 7.00091 10.948 7.06273 11.037C7.34336 11.4403 7.60988 11.8537 7.87897 12.2598C8.29094 11.9824 8.69611 11.7092 9.10167 11.4364C9.20851 11.3645 9.31599 11.2935 9.4236 11.2227C9.67742 11.0556 9.88225 11.0707 10.0062 11.265C10.1277 11.4556 10.0564 11.6474 9.80247 11.8155C9.43629 12.0578 9.06999 12.3001 8.70419 12.5431C7.64182 13.2487 7.53972 14.6249 8.49115 15.4704C9.07794 15.9919 9.67178 16.5055 10.2628 17.0222C10.2927 17.0483 10.3256 17.0708 10.3728 17.1069C10.545 16.8388 10.7163 16.5818 10.8727 16.3159C10.8932 16.2812 10.8524 16.1884 10.8146 16.1445C10.3292 15.5804 9.83916 15.0204 9.35062 14.4592C9.30444 14.4062 9.25609 14.3544 9.21607 14.2971C9.08743 14.1125 9.12539 13.8812 9.32663 13.7864C9.82902 13.5496 10.3378 13.3257 10.8487 13.1078C11.0229 13.0336 11.2126 13.1316 11.2818 13.3011C11.3526 13.4745 11.2909 13.6589 11.1114 13.7463C10.8328 13.8819 10.547 14.0029 10.2645 14.1303C10.2065 14.1565 10.1489 14.1836 10.089 14.2112C10.2266 14.4379 10.3776 14.5797 10.6764 14.5618C11.2018 14.5304 11.7306 14.5609 12.2576 14.5504C12.7648 14.5402 13.1482 14.3054 13.3592 13.8409C13.5691 13.3789 13.5176 12.9221 13.1785 12.544C12.4899 11.7766 11.7974 11.011 11.0725 10.2783C10.0712 9.2663 8.85079 8.63458 7.46161 8.32796C7.22549 8.27585 7.11454 8.14686 7.12609 7.94844C7.13968 7.71626 7.33964 7.5815 7.59462 7.63733C9.06973 7.95999 10.3808 8.61289 11.4564 9.67482C12.2479 10.4562 12.9893 11.289 13.7367 12.1139C14.0685 12.4802 14.1952 12.9369 14.1718 13.4321C14.1691 13.4894 14.1714 13.5469 14.1714 13.5764C14.7221 13.5699 15.2647 13.5505 15.8068 13.5597C17.0694 13.581 18.0384 14.6037 17.9967 15.8646C17.9805 16.3534 17.8091 16.7899 17.5033 17.1727C17.4784 17.2037 17.4533 17.2345 17.4084 17.29C17.6708 17.2927 17.9303 17.2812 17.9927 17.5927C18.0325 17.7912 17.9031 17.905 17.7537 18.0001H0C0 17.8476 0 17.6953 0 17.5428C0.0447625 17.4613 0.131338 17.3763 0.124796 17.2992C0.113766 17.1669 0.0446342 17.0393 0 16.9097C0 16.7572 0 16.6049 0 16.4524V16.4521ZM15.8822 17.267C15.8822 17.2581 15.8853 17.2457 15.8818 17.2354C15.5553 16.2787 15.2299 15.3217 14.896 14.3675C14.879 14.3186 14.7889 14.2652 14.7324 14.2647C13.9537 14.2573 13.2848 14.8604 13.2201 15.6188C13.1515 16.4229 13.6731 17.1539 14.4559 17.2558C14.9207 17.3164 15.3998 17.2669 15.8822 17.2669V17.267ZM16.5653 17.0539C17.1621 16.7545 17.4472 15.9425 17.2048 15.266C16.9668 14.6016 16.2353 14.1456 15.6165 14.2871C15.9328 15.2096 16.2487 16.1307 16.5652 17.0539H16.5653ZM2.17233 14.969C1.96301 14.9298 1.75715 14.8894 1.55066 14.8529C1.30927 14.8103 1.11893 14.9238 1.05634 15.1624C0.938986 15.6091 0.827914 16.0577 0.721202 16.5071C0.668616 16.7285 0.720048 16.9371 0.838688 17.1289C0.916285 17.2544 1.02197 17.3333 1.17537 17.2775C1.32376 17.2236 1.36801 17.1089 1.34749 16.9542C1.31517 16.71 1.40854 16.5664 1.64198 16.485C1.81795 16.4238 1.99546 16.3669 2.17246 16.3081V14.969H2.17233ZM13.0912 17.2871C12.7024 16.7922 12.2218 16.5657 11.6267 16.5839C11.5867 16.5852 11.5318 16.6091 11.5108 16.6405C11.3722 16.8472 11.241 17.0588 11.0958 17.2871H13.0912ZM10.9728 15.2511C11.1655 15.4713 11.3245 15.6547 11.4861 15.8359C11.5037 15.8557 11.5347 15.8716 11.561 15.8744C11.876 15.9069 12.1913 15.9366 12.5025 15.9666C12.5168 15.7345 12.532 15.4882 12.5466 15.2511H10.9728ZM9.49645 17.2865C9.28431 17.101 9.09859 16.9388 8.91441 16.7777C8.75755 16.9514 8.6112 17.1135 8.45498 17.2865H9.49645ZM3.1766 17.2883C3.17827 17.2834 3.17993 17.2784 3.18173 17.2735C3.11696 17.2576 3.05244 17.2413 2.98754 17.226C2.77835 17.1766 2.56249 17.1457 2.36164 17.0732C2.15668 16.9993 2.05215 17.0524 2.0442 17.2883H3.1766Z" fill="white"/>
<path d="M14.8637 6.35258C13.2193 6.31985 11.8759 5.09979 11.681 3.43772C11.501 1.90373 12.5604 0.397204 14.0825 0.0224341C14.305 -0.0323695 14.4552 0.0133216 14.545 0.163101C14.6334 0.310442 14.6035 0.463944 14.4521 0.640034C13.4136 1.8488 14.0235 3.6826 15.5799 4.01155C16.2262 4.14811 16.8085 3.98601 17.3204 3.56799C17.3877 3.51293 17.4594 3.43091 17.5343 3.42475C17.6468 3.41551 17.7816 3.43399 17.8749 3.49213C18.0039 3.57261 18.0202 3.72033 17.9795 3.87024C17.6539 5.06989 16.8992 5.85716 15.7077 6.20806C15.4358 6.28815 15.1455 6.30586 14.8637 6.35232V6.35258ZM16.8355 4.64006C14.5644 5.28038 12.6961 3.19784 13.3448 1.16484C12.7522 1.56143 12.2168 2.5049 12.4118 3.58724C12.5869 4.5592 13.3709 5.36175 14.3633 5.57249C15.2829 5.76784 16.3456 5.37214 16.8355 4.64006Z" fill="white"/>
<path d="M5.87953 8.1557C5.6856 8.14736 5.54452 7.9927 5.55093 7.79544C5.55709 7.606 5.71998 7.4516 5.90711 7.45776C6.09424 7.46392 6.25277 7.62884 6.24956 7.81392C6.24622 8.01067 6.08 8.16417 5.87953 8.15557V8.1557Z" fill="white"/>
</svg>
