<svg width="18" height="10" viewBox="0 0 18 10" fill="none" xmlns="http://www.w3.org/2000/svg">
<path d="M1.36582 2.20912C1.36582 2.12428 1.36582 2.05663 1.36582 1.98898C1.36582 1.47352 1.3616 0.958065 1.36742 0.442608C1.37155 0.0698742 1.63097 -0.0879762 1.97608 0.0494852C2.80715 0.380501 3.63135 0.733034 4.47745 1.02083C4.979 1.19146 5.51983 1.24267 6.03735 1.37073C6.72165 1.54004 7.36348 1.81111 7.92404 2.25028C8.34131 2.57725 8.66894 2.97742 8.89895 3.45624C8.92366 3.50754 8.94978 3.55827 8.97609 3.60873C8.97797 3.6123 8.9869 3.61221 8.99254 3.6138C9.00278 3.60835 9.01875 3.60544 9.02241 3.59708C9.46393 2.58947 10.2503 1.95468 11.2615 1.60018C11.798 1.41207 12.3587 1.281 12.9177 1.17144C13.7925 1.00006 14.6074 0.667357 15.4195 0.320086C15.5946 0.245201 15.7665 0.162423 15.9398 0.0834043C16.3729 -0.114003 16.6219 0.043096 16.6227 0.515426C16.6236 1.00542 16.6229 1.49541 16.6229 1.98541C16.6229 2.05428 16.6229 2.12325 16.6229 2.21119C16.7268 2.17502 16.8089 2.14467 16.8922 2.11789C17.0642 2.06255 17.207 2.11404 17.317 2.25037C17.4506 2.41602 17.4202 2.52097 17.2232 2.60234C14.535 3.71349 11.8472 4.82578 9.15649 5.93101C9.06432 5.96888 8.92949 5.96925 8.83741 5.93148C6.15799 4.83217 3.48139 3.72627 0.805642 2.61812C0.726811 2.58543 0.595081 2.49635 0.603537 2.46892C0.638208 2.35579 0.696838 2.22951 0.786851 2.16055C0.858071 2.10596 0.988956 2.11329 1.09137 2.12052C1.17612 2.12653 1.25805 2.17257 1.36573 2.20922L1.36582 2.20912Z" fill="white"/>
<path d="M7.16906 6.63372C6.32061 6.28241 5.51144 5.94651 4.70161 5.61211C3.24535 5.01068 1.78861 4.4102 0.332159 3.80905C0.0750887 3.70288 -0.00336674 3.59069 0.000109727 3.337C0.00508953 2.97695 0.259154 2.80444 0.594868 2.94172C1.35349 3.25178 2.10995 3.5672 2.86754 3.87999C4.85824 4.70194 6.8495 5.52248 8.8387 6.34809C8.95493 6.39629 9.04851 6.39178 9.16135 6.34499C11.873 5.22153 14.586 4.10117 17.2986 2.98024C17.3221 2.97056 17.346 2.96173 17.3696 2.95224C17.6379 2.84428 17.8611 2.90996 17.9533 3.1239C18.0692 3.39272 17.9638 3.68173 17.6985 3.79279C17.0949 4.04545 16.4887 4.2919 15.8838 4.54174C14.2513 5.21589 12.619 5.89042 10.9867 6.56504C10.9463 6.58177 10.9069 6.60121 10.8316 6.6356C10.9082 6.68258 10.9618 6.71848 11.018 6.74948C12.5427 7.59144 14.0678 8.43294 15.5928 9.27452C15.6318 9.29604 15.6824 9.3091 15.7068 9.34161C15.7627 9.41612 15.8476 9.502 15.8446 9.58027C15.8397 9.70589 15.7208 9.73408 15.6005 9.73361C14.9641 9.73088 14.3275 9.74122 13.6914 9.7259C13.5339 9.72214 13.3662 9.66323 13.2238 9.58966C11.8798 8.89559 10.5392 8.19466 9.20063 7.48988C9.05866 7.41508 8.94919 7.40447 8.79952 7.48358C7.46775 8.18742 6.13344 8.88657 4.79247 9.57256C4.60831 9.6668 4.3845 9.7182 4.17685 9.72534C3.59205 9.74554 3.00603 9.73098 2.42048 9.73351C2.2912 9.73408 2.16849 9.72449 2.13485 9.57435C2.103 9.43172 2.21462 9.37553 2.31713 9.31897C3.87017 8.46253 5.42312 7.60591 6.97588 6.74892C7.03 6.71904 7.08214 6.68559 7.16887 6.63363L7.16906 6.63372Z" fill="white"/>
</svg>
