<svg width="19" height="19" viewBox="0 0 19 19" fill="none" xmlns="http://www.w3.org/2000/svg">
<g clip-path="url(#clip0_9_597)">
<path d="M14.9718 10.0022C15.0026 9.75557 15.0257 9.50899 15.0257 9.247C15.0257 8.98501 15.0026 8.73844 14.9718 8.49186L16.5977 7.22043C16.7441 7.10485 16.7826 6.8968 16.6901 6.72728L15.149 4.06114C15.0797 3.93785 14.9487 3.8685 14.81 3.8685C14.7637 3.8685 14.7175 3.87621 14.679 3.89162L12.7603 4.66218C12.3596 4.35395 11.9281 4.09967 11.458 3.90703L11.1652 1.86505C11.1421 1.68011 10.9803 1.54141 10.7877 1.54141H7.70542C7.51278 1.54141 7.35096 1.68011 7.32785 1.86505L7.03503 3.90703C6.56499 4.09967 6.13348 4.36166 5.73279 4.66218L3.8141 3.89162C3.76786 3.87621 3.72163 3.8685 3.67539 3.8685C3.5444 3.8685 3.4134 3.93785 3.34405 4.06114L1.80294 6.72728C1.70276 6.8968 1.749 7.10485 1.8954 7.22043L3.52128 8.49186C3.49046 8.73844 3.46734 8.99272 3.46734 9.247C3.46734 9.50129 3.49046 9.75557 3.52128 10.0022L1.8954 11.2736C1.749 11.3892 1.71047 11.5972 1.80294 11.7667L3.34405 14.4329C3.4134 14.5562 3.5444 14.6255 3.6831 14.6255C3.72933 14.6255 3.77557 14.6178 3.8141 14.6024L5.73279 13.8318C6.13348 14.1401 6.56499 14.3943 7.03503 14.587L7.32785 16.629C7.35096 16.8139 7.51278 16.9526 7.70542 16.9526H10.7877C10.9803 16.9526 11.1421 16.8139 11.1652 16.629L11.458 14.587C11.9281 14.3943 12.3596 14.1323 12.7603 13.8318L14.679 14.6024C14.7252 14.6178 14.7714 14.6255 14.8177 14.6255C14.9487 14.6255 15.0797 14.5562 15.149 14.4329L16.6901 11.7667C16.7826 11.5972 16.7441 11.3892 16.5977 11.2736L14.9718 10.0022ZM13.4461 8.6845C13.4769 8.92337 13.4846 9.08519 13.4846 9.247C13.4846 9.40882 13.4692 9.57834 13.4461 9.80951L13.3382 10.6802L14.024 11.2196L14.8562 11.8669L14.3168 12.7993L13.3382 12.4063L12.5368 12.0827L11.8433 12.6066C11.512 12.8532 11.1961 13.0382 10.8801 13.1692L10.0633 13.5005L9.94004 14.3712L9.78593 15.4115H8.70715L8.56074 14.3712L8.43745 13.5005L7.62066 13.1692C7.28932 13.0304 6.98109 12.8532 6.67287 12.6221L5.97166 12.0827L5.15487 12.414L4.17626 12.807L3.63687 11.8746L4.46907 11.2273L5.15487 10.688L5.04699 9.81722C5.02387 9.57834 5.00846 9.40112 5.00846 9.247C5.00846 9.09289 5.02387 8.91566 5.04699 8.6845L5.15487 7.81376L4.46907 7.27437L3.63687 6.6271L4.17626 5.69473L5.15487 6.08771L5.95625 6.41135L6.64975 5.88737C6.98109 5.64079 7.29702 5.45585 7.61295 5.32486L8.42974 4.99352L8.55303 4.12279L8.70715 3.08253H9.77822L9.92463 4.12279L10.0479 4.99352L10.8647 5.32486C11.1961 5.46356 11.5043 5.64079 11.8125 5.87195L12.5137 6.41135L13.3305 6.08001L14.3091 5.68702L14.8485 6.6194L14.024 7.27437L13.3382 7.81376L13.4461 8.6845ZM9.24654 6.16477C7.5436 6.16477 6.1643 7.54407 6.1643 9.247C6.1643 10.9499 7.5436 12.3292 9.24654 12.3292C10.9495 12.3292 12.3288 10.9499 12.3288 9.247C12.3288 7.54407 10.9495 6.16477 9.24654 6.16477ZM9.24654 10.7881C8.39892 10.7881 7.70542 10.0946 7.70542 9.247C7.70542 8.39939 8.39892 7.70589 9.24654 7.70589C10.0942 7.70589 10.7877 8.39939 10.7877 9.247C10.7877 10.0946 10.0942 10.7881 9.24654 10.7881Z" fill="white"/>
</g>
<defs>
<clipPath id="clip0_9_597">
<rect width="18.4934" height="18.4934" fill="white" transform="translate(0 0.000244141)"/>
</clipPath>
</defs>
</svg>
